<svg width="138" height="19" viewBox="0 0 138 19" fill="none" xmlns="http://www.w3.org/2000/svg">
<path d="M0.00081259 18.48V1.19998H1.96881V8.85598H7.53681L13.9688 1.19998H16.4648V1.22398L9.24081 9.83998L16.4888 18.456V18.48H13.9688L7.53681 10.824H1.96881V18.48H0.00081259ZM21.9098 18.48C21.3818 18.48 20.8938 18.352 20.4458 18.096C20.0138 17.824 19.6618 17.472 19.3898 17.04C19.1338 16.592 19.0058 16.104 19.0058 15.576V10.536H31.1978V7.46398C31.1978 7.20798 31.1018 6.99198 30.9098 6.81598C30.7338 6.62398 30.5178 6.52798 30.2618 6.52798H19.0058V4.55998H30.2618C30.8058 4.55998 31.2938 4.69598 31.7258 4.96798C32.1738 5.22398 32.5258 5.57598 32.7818 6.02398C33.0538 6.45598 33.1898 6.93598 33.1898 7.46398V18.48H21.9098ZM21.9098 16.512H31.1978V12.504H20.9738V15.576C20.9738 15.832 21.0618 16.056 21.2378 16.248C21.4298 16.424 21.6538 16.512 21.9098 16.512ZM42.1371 18.48L34.4571 4.55998H36.7611L43.2891 16.56L49.8171 4.55998H52.1211L44.4171 18.48H42.1371ZM57.0661 18.48C56.5381 18.48 56.0501 18.352 55.6021 18.096C55.1701 17.824 54.8181 17.472 54.5461 17.04C54.2901 16.592 54.1621 16.104 54.1621 15.576V10.536H66.3541V7.46398C66.3541 7.20798 66.2581 6.99198 66.0661 6.81598C65.8901 6.62398 65.6741 6.52798 65.4181 6.52798H54.1621V4.55998H65.4181C65.9621 4.55998 66.4501 4.69598 66.8821 4.96798C67.3301 5.22398 67.6821 5.57598 67.9381 6.02398C68.2101 6.45598 68.3461 6.93598 68.3461 7.46398V18.48H57.0661ZM57.0661 16.512H66.3541V12.504H56.1301V15.576C56.1301 15.832 56.2181 16.056 56.3941 16.248C56.5861 16.424 56.8101 16.512 57.0661 16.512ZM73.4718 18.48C72.9438 18.48 72.4558 18.352 72.0078 18.096C71.5758 17.824 71.2238 17.472 70.9518 17.04C70.6958 16.592 70.5678 16.104 70.5678 15.576V7.46398C70.5678 6.93598 70.6958 6.45598 70.9518 6.02398C71.2238 5.57598 71.5758 5.22398 72.0078 4.96798C72.4558 4.69598 72.9438 4.55998 73.4718 4.55998H84.7038V6.52798H73.4718C73.2158 6.52798 72.9918 6.62398 72.7998 6.81598C72.6238 6.99198 72.5358 7.20798 72.5358 7.46398V15.576C72.5358 15.832 72.6238 16.056 72.7998 16.248C72.9918 16.424 73.2158 16.512 73.4718 16.512H84.7518V18.48H73.4718ZM86.9757 18.48V-2.0504e-05H88.9437V4.55998H98.2557C98.7837 4.55998 99.2637 4.69598 99.6957 4.96798C100.144 5.22398 100.496 5.57598 100.752 6.02398C101.024 6.45598 101.16 6.93598 101.16 7.46398V18.48H99.1917V7.46398C99.1917 7.20798 99.0957 6.99198 98.9037 6.81598C98.7277 6.62398 98.5117 6.52798 98.2557 6.52798H89.9037C89.6477 6.52798 89.4237 6.62398 89.2317 6.81598C89.0397 6.99198 88.9437 7.20798 88.9437 7.46398V18.48H86.9757ZM109.354 18.48V18.456L116.602 9.83998L109.354 1.22398V1.19998H111.85L117.874 8.32798L123.874 1.19998H126.37V1.22398L119.122 9.83998L126.394 18.456V18.48H123.874L117.874 11.352L111.85 18.48H109.354ZM135.562 18.48V16.512H137.53V18.48H135.562Z" fill="white"/>
</svg>
